<svg xmlns="http://www.w3.org/2000/svg" width="386.501" height="441.716" viewBox="0 0 386.501 441.716">
  <path id="ic_book_white" d="M386.5,310.581V20.705A20.656,20.656,0,0,0,365.8,0H82.822A82.843,82.843,0,0,0,0,82.822V358.894a82.843,82.843,0,0,0,82.822,82.822H365.8A20.656,20.656,0,0,0,386.5,421.01v-13.8a20.867,20.867,0,0,0-7.678-16.133c-3.624-13.286-3.624-51.16,0-64.446A20.56,20.56,0,0,0,386.5,310.581ZM110.429,115.605a5.192,5.192,0,0,1,5.176-5.176H298.5a5.192,5.192,0,0,1,5.176,5.176V132.86a5.192,5.192,0,0,1-5.176,5.176h-182.9a5.192,5.192,0,0,1-5.176-5.176Zm0,55.214a5.192,5.192,0,0,1,5.176-5.176H298.5a5.192,5.192,0,0,1,5.176,5.176v17.255a5.192,5.192,0,0,1-5.176,5.176h-182.9a5.192,5.192,0,0,1-5.176-5.176ZM329.044,386.5H82.822a27.607,27.607,0,1,1,0-55.214H329.044C327.4,346.039,327.4,371.749,329.044,386.5Z" fill="#f5f5f5"/>
</svg>
