<svg xmlns="http://www.w3.org/2000/svg" width="181.818" height="181.818" viewBox="0 0 181.818 181.818">
  <path id="ic_sad" d="M94.284,3.375a90.909,90.909,0,1,0,90.909,90.909A90.9,90.9,0,0,0,94.284,3.375Zm-32.3,66.477a10.5,10.5,0,1,1-9.615,9.615A10.514,10.514,0,0,1,61.985,69.852Zm-.306,66.39a7.005,7.005,0,0,1-6.425-9.79,42.545,42.545,0,0,1,78.06,0,6.989,6.989,0,0,1-6.425,9.79,314.975,314.975,0,0,0-31.949-1.748C78.113,134.494,61.679,136.242,61.679,136.242Zm64.9-45.5a10.5,10.5,0,1,1,9.615-9.615A10.514,10.514,0,0,1,126.583,90.744Z" transform="translate(-3.375 -3.375)" fill="#f55a6a"/>
</svg>
