<svg xmlns="http://www.w3.org/2000/svg" width="39.502" height="39.502" viewBox="0 0 39.502 39.502">
  <path id="ic_save" d="M38.262,10.886l-7.4-7.4a4.232,4.232,0,0,0-2.993-1.24H4.232A4.232,4.232,0,0,0,0,6.482V37.52a4.232,4.232,0,0,0,4.232,4.232H35.27A4.232,4.232,0,0,0,39.5,37.52V13.879a4.232,4.232,0,0,0-1.24-2.993ZM19.751,36.109a5.643,5.643,0,1,1,5.643-5.643A5.643,5.643,0,0,1,19.751,36.109ZM28.216,9.258v8.863a1.058,1.058,0,0,1-1.058,1.058H6.7a1.058,1.058,0,0,1-1.058-1.058V8.951A1.058,1.058,0,0,1,6.7,7.893h20.15a1.058,1.058,0,0,1,.748.31l.307.307a1.058,1.058,0,0,1,.31.748Z" transform="translate(0 -2.25)" fill="#f5f5f5"/>
</svg>
