<svg xmlns="http://www.w3.org/2000/svg" width="181.82" height="181.82" viewBox="0 0 181.82 181.82">
  <path id="ic_tentative" d="M182.382,91.473A90.91,90.91,0,1,1,91.473.563,90.905,90.905,0,0,1,182.382,91.473ZM93.912,30.621c-19.977,0-32.718,8.415-42.724,23.372a4.4,4.4,0,0,0,1,5.96L64.9,69.6a4.4,4.4,0,0,0,6.109-.778C77.561,60.514,82.051,55.7,92.018,55.7c7.489,0,16.752,4.82,16.752,12.082,0,5.49-4.532,8.309-11.926,12.455-8.623,4.834-20.034,10.851-20.034,25.9V107.6a4.4,4.4,0,0,0,4.4,4.4h20.528a4.4,4.4,0,0,0,4.4-4.4v-.489c0-10.433,30.494-10.868,30.494-39.1C136.629,46.75,114.574,30.621,93.912,30.621Zm-2.44,90.91a16.862,16.862,0,1,0,16.862,16.862A16.881,16.881,0,0,0,91.473,121.531Z" transform="translate(-0.563 -0.563)" fill="#d4d6cd"/>
</svg>
