<svg xmlns="http://www.w3.org/2000/svg" width="34.215" height="34.218" viewBox="0 0 34.215 34.218">
  <path id="ic_update" d="M38.717,18.035H25.829l5.209-5.361a13.381,13.381,0,0,0-18.782-.19,13.069,13.069,0,0,0,0,18.611,13.344,13.344,0,0,0,18.782,0,12.381,12.381,0,0,0,3.878-9.3h3.8A17.757,17.757,0,0,1,33.7,33.756a17.211,17.211,0,0,1-24.181,0A16.8,16.8,0,0,1,9.48,9.842a17.085,17.085,0,0,1,24.047,0L38.717,4.5ZM22.559,14v8.079l6.653,3.954-1.369,2.3L19.707,23.51V14Z" transform="translate(-4.502 -4.5)" fill="#f5f5f5"/>
</svg>
